<?xml version="1.0" encoding="UTF-8" standalone="no"?><svg xmlns="http://www.w3.org/2000/svg" xmlns:xlink="http://www.w3.org/1999/xlink" contentScriptType="application/ecmascript" contentStyleType="text/css" height="890px" preserveAspectRatio="none" style="width:1124px;height:890px;background:#FFFFFF;" version="1.1" viewBox="0 0 1124 890" width="1124px" zoomAndPan="magnify"><defs/><g><text fill="#000000" font-family="sans-serif" font-size="18" lengthAdjust="spacing" textLength="39" x="536" y="19.2419">Sync</text><rect fill="#FFFFFF" height="40" rx="12.5" ry="12.5" style="stroke:#708090;stroke-width:1.5;" width="74" x="559" y="31.5158"/><text fill="#000000" font-family="monospace" font-size="14" lengthAdjust="spacing" textLength="64" x="564" y="56.3625">disabled</text><rect fill="#FFFFFF" height="40" rx="12.5" ry="12.5" style="stroke:#708090;stroke-width:1.5;" width="114" x="223" y="148.5158"/><text fill="#000000" font-family="monospace" font-size="14" lengthAdjust="spacing" textLength="104" x="228" y="173.3625">misconfigured</text><rect fill="#FFFFFF" height="40" rx="12.5" ry="12.5" style="stroke:#708090;stroke-width:1.5;" width="66" x="521" y="280.5158"/><text fill="#000000" font-family="monospace" font-size="14" lengthAdjust="spacing" textLength="56" x="526" y="305.3625">healthy</text><rect fill="#FFFFFF" height="40" rx="12.5" ry="12.5" style="stroke:#708090;stroke-width:1.5;" width="122" x="348" y="397.5158"/><text fill="#000000" font-family="monospace" font-size="14" lengthAdjust="spacing" textLength="112" x="353" y="422.3625">pending_remote</text><g id="syncing"><rect fill="#FFFFFF" height="106.1406" rx="12.5" ry="12.5" style="stroke:#708090;stroke-width:1.5;" width="174" x="273" y="529.5158"/><line style="stroke:#708090;stroke-width:1.5;" x1="273" x2="447" y1="555.8127" y2="555.8127"/><text fill="#000000" font-family="monospace" font-size="14" lengthAdjust="spacing" textLength="56" x="332" y="547.511">syncing</text><text fill="#000000" font-family="monospace" font-size="12" lengthAdjust="spacing" textLength="98" x="278" y="571.9514">└┬ AEn:runSync</text><text fill="#000000" font-family="monospace" font-size="12" lengthAdjust="spacing" textLength="70" x="285" y="585.9201">├┬ success</text><text fill="#000000" font-family="monospace" font-size="12" lengthAdjust="spacing" textLength="147" x="285" y="599.8889">│└ T:route_after_sync</text><text fill="#000000" font-family="monospace" font-size="12" lengthAdjust="spacing" textLength="70" x="285" y="613.8576">└┬ failure</text><text fill="#000000" font-family="monospace" font-size="12" lengthAdjust="spacing" textLength="140" x="292" y="627.8264">└ T:route_after_sync</text></g><rect fill="#FFFFFF" height="40" rx="12.5" ry="12.5" style="stroke:#708090;stroke-width:1.5;" width="138" x="291" y="712.5158"/><text fill="#000000" font-family="monospace" font-size="14" lengthAdjust="spacing" textLength="128" x="296" y="737.3625">route_after_sync</text><rect fill="#FFFFFF" height="40" rx="12.5" ry="12.5" style="stroke:#708090;stroke-width:1.5;" width="138" x="25" y="844.5158"/><text fill="#000000" font-family="monospace" font-size="14" lengthAdjust="spacing" textLength="128" x="30" y="869.3625">degraded_network</text><rect fill="#FFFFFF" height="40" rx="12.5" ry="12.5" style="stroke:#708090;stroke-width:1.5;" width="114" x="458" y="844.5158"/><text fill="#000000" font-family="monospace" font-size="14" lengthAdjust="spacing" textLength="104" x="463" y="869.3625">degraded_auth</text><rect fill="#FFFFFF" height="40" rx="12.5" ry="12.5" style="stroke:#708090;stroke-width:1.5;" width="74" x="733" y="844.5158"/><text fill="#000000" font-family="monospace" font-size="14" lengthAdjust="spacing" textLength="64" x="738" y="869.3625">conflict</text><ellipse cx="787" cy="168.5158" fill="#000000" rx="10" ry="10" style="stroke:none;stroke-width:1.0;"/><!--MD5=[fda23e7d826c87d7f332bbf3f9f49291]
link *start to healthy--><path d="M781.61,177.4658 C770.26,193.6058 742.27,230.3958 710,250.5158 C673.41,273.3258 625.33,286.3158 592.27,293.1158 " fill="none" id="*start-to-healthy" style="stroke:#708090;stroke-width:2.0;"/><polygon fill="#708090" points="587.1,294.1458,596.7121,296.2923,592.0018,293.1598,595.1344,288.4495,587.1,294.1458" style="stroke:#708090;stroke-width:2.0;"/><!--MD5=[e687c2f2a15779e79a4d7fc0295802d0]
link disabled to healthy--><path d="M579,71.8258 C564.11,90.1358 543.55,119.1258 535,148.5158 C528.25,171.7258 540.86,238.9158 548.6,275.3458 " fill="none" id="disabled-to-healthy" style="stroke:#708090;stroke-width:2.0;"/><polygon fill="#708090" points="549.7,280.4858,551.7331,270.8491,548.6563,275.596,543.9094,272.5191,549.7,280.4858" style="stroke:#708090;stroke-width:2.0;"/><text fill="#000000" font-family="monospace" font-size="13" lengthAdjust="spacing" textLength="48" x="536" y="165.5827">ENABLE</text><text fill="#000000" font-family="monospace" font-size="13" lengthAdjust="spacing" textLength="104" x="536" y="180.7156">└ G:isEnabled</text><!--MD5=[bb9d8e82376536c49b756aa14b878322]
link healthy to disabled--><path d="M577.13,280.2358 C599.39,260.0358 631.58,226.0558 645,188.5158 C659.11,149.0358 633.94,103.1658 614.74,76.0558 " fill="none" id="healthy-to-disabled" style="stroke:#708090;stroke-width:2.0;"/><polygon fill="#708090" points="611.72,71.8758,613.7442,81.5144,614.6464,75.93,620.2309,76.8322,611.72,71.8758" style="stroke:#708090;stroke-width:2.0;"/><text fill="#000000" font-family="monospace" font-size="13" lengthAdjust="spacing" textLength="56" x="650" y="173.0827">DISABLE</text><!--MD5=[67da7819b0188f235d75e8a0481af6b0]
link disabled to misconfigured--><path d="M558.85,56.3958 C513.99,62.0658 436.99,74.9558 376,101.5158 C350.66,112.5558 325.01,130.6158 306.61,145.0558 " fill="none" id="disabled-to-misconfigured" style="stroke:#708090;stroke-width:2.0;"/><polygon fill="#708090" points="302.57,148.2658,312.1088,145.8139,306.4896,145.1616,307.142,139.5425,302.57,148.2658" style="stroke:#708090;stroke-width:2.0;"/><text fill="#000000" font-family="monospace" font-size="13" lengthAdjust="spacing" textLength="104" x="377" y="114.5827">CONFIG_BROKEN</text><!--MD5=[3c05f0f16a3fc90435ab693ea784a1eb]
link misconfigured to disabled--><path d="M273.57,148.4658 C269.97,133.8958 268.11,114.2158 279,101.5158 C313.93,60.7658 476,53.6058 553.93,52.5458 " fill="none" id="misconfigured-to-disabled" style="stroke:#708090;stroke-width:2.0;"/><polygon fill="#708090" points="558.94,52.4858,549.8949,48.589,553.9403,52.543,549.9863,56.5884,558.94,52.4858" style="stroke:#708090;stroke-width:2.0;"/><text fill="#000000" font-family="monospace" font-size="13" lengthAdjust="spacing" textLength="56" x="280" y="114.5827">DISABLE</text><!--MD5=[fdf6c7b8a0c70266cd971ee11aeeed89]
link misconfigured to healthy--><path d="M329.55,188.5458 C348.21,196.6458 369.2,206.9058 387,218.5158 C404.93,230.2158 404.66,239.4658 423,250.5158 C452.27,268.1558 488.95,281.2058 516.05,289.3858 " fill="none" id="misconfigured-to-healthy" style="stroke:#708090;stroke-width:2.0;"/><polygon fill="#708090" points="520.99,290.8558,513.5102,284.4487,516.1989,289.4257,511.2219,292.1144,520.99,290.8558" style="stroke:#708090;stroke-width:2.0;"/><text fill="#000000" font-family="monospace" font-size="13" lengthAdjust="spacing" textLength="48" x="424" y="231.5827">ENABLE</text><text fill="#000000" font-family="monospace" font-size="13" lengthAdjust="spacing" textLength="104" x="424" y="246.7156">└ G:isEnabled</text><!--MD5=[c672e2aa3518de75bb8a76f207b8a65f]
link healthy to misconfigured--><path d="M520.85,298.8458 C453.49,296.7158 304.35,287.8058 273,250.5158 C259.88,234.9158 263.79,211.1358 269.69,193.3758 " fill="none" id="healthy-to-misconfigured" style="stroke:#708090;stroke-width:2.0;"/><polygon fill="#708090" points="271.4,188.5358,264.6225,195.6818,269.7292,193.2484,272.1626,198.3551,271.4,188.5358" style="stroke:#708090;stroke-width:2.0;"/><text fill="#000000" font-family="monospace" font-size="13" lengthAdjust="spacing" textLength="104" x="274" y="239.0827">CONFIG_BROKEN</text><!--MD5=[15e4bf4aa70c9f49b3c16686d3e75de5]
link healthy to pending_remote--><path d="M520.79,301.9858 C485.75,304.4858 432.07,314.4258 406,350.5158 C397.46,362.3358 398.14,378.6958 400.99,392.1658 " fill="none" id="healthy-to-pending_remote" style="stroke:#708090;stroke-width:2.0;"/><polygon fill="#708090" points="402.23,397.3558,404.0354,387.6739,401.0713,392.492,396.2532,389.5279,402.23,397.3558" style="stroke:#708090;stroke-width:2.0;"/><text fill="#000000" font-family="monospace" font-size="13" lengthAdjust="spacing" textLength="120" x="407" y="363.5827">LOCAL_PERSISTED</text><!--MD5=[d74313e5fcd510f495e047f9e4e0ef96]
link pending_remote to syncing--><path d="M347.95,420.5958 C313.55,425.2958 273.15,437.4558 251,467.5158 C235.02,489.2058 247.42,511.0558 268.74,529.7458 " fill="none" id="pending_remote-to-syncing" style="stroke:#708090;stroke-width:2.0;"/><polygon fill="#708090" points="272.83,533.1958,268.5448,524.3281,269.0136,529.9655,263.3762,530.4343,272.83,533.1958" style="stroke:#708090;stroke-width:2.0;"/><text fill="#000000" font-family="monospace" font-size="13" lengthAdjust="spacing" textLength="112" x="252" y="480.5827">SYNC_REQUESTED</text><text fill="#000000" font-family="monospace" font-size="13" lengthAdjust="spacing" textLength="104" x="252" y="495.7156">└ G:isEnabled</text><!--MD5=[d74313e5fcd510f495e047f9e4e0ef96]
link pending_remote to syncing--><path d="M403.28,437.5358 C396.91,458.7358 386.3,494.0458 377.17,524.3858 " fill="none" id="pending_remote-to-syncing-1" style="stroke:#708090;stroke-width:2.0;"/><polygon fill="#708090" points="375.72,529.2158,382.1477,521.7536,377.1633,524.4287,374.4882,519.4443,375.72,529.2158" style="stroke:#708090;stroke-width:2.0;"/><text fill="#000000" font-family="monospace" font-size="13" lengthAdjust="spacing" textLength="40" x="394" y="480.5827">RETRY</text><text fill="#000000" font-family="monospace" font-size="13" lengthAdjust="spacing" textLength="104" x="394" y="495.7156">└ G:isEnabled</text><!--MD5=[e5a05dd7bcd75a19e288309b35ddfdcb]
link pending_remote to disabled--><path d="M470.29,405.9958 C569.01,385.1258 757.95,327.8558 815,188.5158 C847.3,109.6458 710.36,72.8558 638.1,59.1858 " fill="none" id="pending_remote-to-disabled" style="stroke:#708090;stroke-width:2.0;"/><polygon fill="#708090" points="633.01,58.2458,641.1265,63.8245,637.9257,59.1604,642.5898,55.9595,633.01,58.2458" style="stroke:#708090;stroke-width:2.0;"/><text fill="#000000" font-family="monospace" font-size="13" lengthAdjust="spacing" textLength="56" x="798" y="239.0827">DISABLE</text><!--MD5=[4d6ee3e46e401f8be775770f96a94fee]
link pending_remote to misconfigured--><path d="M381.49,397.3058 C344.72,369.7558 281.24,315.1358 256,250.5158 C248.64,231.6558 256.19,209.5858 264.71,193.2558 " fill="none" id="pending_remote-to-misconfigured" style="stroke:#708090;stroke-width:2.0;"/><polygon fill="#708090" points="267.13,188.8058,259.3156,194.8004,264.7408,193.1981,266.3431,198.6232,267.13,188.8058" style="stroke:#708090;stroke-width:2.0;"/><text fill="#000000" font-family="monospace" font-size="13" lengthAdjust="spacing" textLength="104" x="299" y="305.0827">CONFIG_BROKEN</text><!--MD5=[a5cafa916cb97da725539e9da8d133f2]
link syncing to route_after_sync--><path d="M357.23,635.6658 C356.75,650.7758 356.53,667.3058 357,682.5158 C357.25,690.5458 357.72,699.3058 358.21,707.1658 " fill="none" id="syncing-to-route_after_sync" style="stroke:#708090;stroke-width:2.0;"/><polygon fill="#708090" points="358.56,712.4458,361.9595,703.2023,358.2312,707.4567,353.9768,703.7284,358.56,712.4458" style="stroke:#708090;stroke-width:2.0;"/><text fill="#000000" font-family="monospace" font-size="13" lengthAdjust="spacing" textLength="128" x="358" y="678.5827">route_after_sync</text><!--MD5=[b1eaeacc9b3bff865b97b5b54670c580]
link route_after_sync to healthy--><path d="M429.2,721.2858 C453.41,714.2758 478.61,702.4458 495,682.5158 C583.07,575.4058 567.23,392.1258 557.99,326.1158 " fill="none" id="route_after_sync-to-healthy" style="stroke:#708090;stroke-width:2.0;stroke-dasharray:7.0,7.0;"/><polygon fill="#708090" points="557.23,320.8358,554.5315,330.3078,557.9311,325.7864,562.4525,329.1861,557.23,320.8358" style="stroke:#708090;stroke-width:2.0;"/><text fill="#000000" font-family="monospace" font-size="13" lengthAdjust="spacing" textLength="56" x="565" y="480.5827">healthy</text><text fill="#000000" font-family="monospace" font-size="13" lengthAdjust="spacing" textLength="192" x="565" y="495.7156">└ G:isHealthySyncOutcome</text><!--MD5=[fd7f22a05a0f289eeea6c6830f41de76]
link route_after_sync to degraded_network--><path d="M290.67,747.6158 C246.17,757.4458 193.09,770.8258 173,782.5158 C147.9,797.1258 125.45,821.8658 110.95,840.1758 " fill="none" id="route_after_sync-to-degraded_network" style="stroke:#708090;stroke-width:2.0;stroke-dasharray:7.0,7.0;"/><polygon fill="#708090" points="107.8,844.2058,116.4968,839.5835,110.8815,840.2683,110.1968,834.6531,107.8,844.2058" style="stroke:#708090;stroke-width:2.0;"/><text fill="#000000" font-family="monospace" font-size="13" lengthAdjust="spacing" textLength="128" x="174" y="795.5827">degraded_network</text><text fill="#000000" font-family="monospace" font-size="13" lengthAdjust="spacing" textLength="160" x="174" y="810.7156">└ G:isNetworkOutcome</text><!--MD5=[0ee7b0c00e9bf2a0134de2e63f8ec5f9]
link route_after_sync to degraded_auth--><path d="M350.92,752.8358 C344.04,770.6058 337.81,796.8158 351,814.5158 C374.26,845.7458 416.69,857.8458 452.56,862.2158 " fill="none" id="route_after_sync-to-degraded_auth" style="stroke:#708090;stroke-width:2.0;stroke-dasharray:7.0,7.0;"/><polygon fill="#708090" points="457.8,862.8058,449.3015,857.8284,452.8311,862.249,448.4105,865.7786,457.8,862.8058" style="stroke:#708090;stroke-width:2.0;"/><text fill="#000000" font-family="monospace" font-size="13" lengthAdjust="spacing" textLength="104" x="352" y="795.5827">degraded_auth</text><text fill="#000000" font-family="monospace" font-size="13" lengthAdjust="spacing" textLength="136" x="352" y="810.7156">└ G:isAuthOutcome</text><!--MD5=[492261c69cf417a17dd0af13d7df9c1e]
link route_after_sync to conflict--><path d="M415.23,752.5558 C440.3,761.3858 470.26,772.1858 497,782.5158 C531.57,795.8758 538.81,802.8758 574,814.5158 C625.95,831.6958 687.36,846.1358 727.42,854.7958 " fill="none" id="route_after_sync-to-conflict" style="stroke:#708090;stroke-width:2.0;stroke-dasharray:7.0,7.0;"/><polygon fill="#708090" points="732.68,855.9258,724.7133,850.1352,727.7902,854.8821,723.0433,857.959,732.68,855.9258" style="stroke:#708090;stroke-width:2.0;"/><text fill="#000000" font-family="monospace" font-size="13" lengthAdjust="spacing" textLength="64" x="575" y="795.5827">conflict</text><text fill="#000000" font-family="monospace" font-size="13" lengthAdjust="spacing" textLength="168" x="575" y="810.7156">└ G:isConflictOutcome</text><!--MD5=[2b27acdf119c586d3aff9c9cc01ccf7c]
link route_after_sync to misconfigured--><path d="M314.81,712.5058 C248.86,683.3058 134,626.3158 134,583.5158 C134,299.5158 134,299.5158 134,299.5158 C134,247.9458 185.45,211.7858 227.26,190.9258 " fill="none" id="route_after_sync-to-misconfigured" style="stroke:#708090;stroke-width:2.0;stroke-dasharray:7.0,7.0;"/><polygon fill="#708090" points="231.79,188.7058,221.9482,189.0776,227.3008,190.9075,225.4709,196.2602,231.79,188.7058" style="stroke:#708090;stroke-width:2.0;"/><text fill="#000000" font-family="monospace" font-size="13" lengthAdjust="spacing" textLength="104" x="135" y="422.0827">misconfigured</text><!--MD5=[a53ec27011a907f02a0af8f91ab62a9e]
link degraded_network to syncing--><path d="M90.98,844.3858 C87.19,813.6558 84.22,752.6958 112,712.5158 C148.57,659.6158 213.72,626.9258 268.07,607.6858 " fill="none" id="degraded_network-to-syncing" style="stroke:#708090;stroke-width:2.0;"/><polygon fill="#708090" points="272.96,605.9758,263.1428,605.1868,268.2429,607.634,265.7958,612.7341,272.96,605.9758" style="stroke:#708090;stroke-width:2.0;"/><text fill="#000000" font-family="monospace" font-size="13" lengthAdjust="spacing" textLength="40" x="113" y="729.5827">RETRY</text><text fill="#000000" font-family="monospace" font-size="13" lengthAdjust="spacing" textLength="160" x="113" y="744.7156">└ G:hasPendingRemote</text><!--MD5=[76b2ad1bdb072a284e686b9567ae6c96]
link degraded_network to disabled--><path d="M69.95,844.2258 C43.9,820.9758 6,779.3058 6,733.5158 C6,167.5158 6,167.5158 6,167.5158 C6,55.8558 418.28,50.5158 553.57,51.7658 " fill="none" id="degraded_network-to-disabled" style="stroke:#708090;stroke-width:2.0;"/><polygon fill="#708090" points="558.65,51.8258,549.6846,47.7489,553.6502,51.783,549.616,55.7486,558.65,51.8258" style="stroke:#708090;stroke-width:2.0;"/><text fill="#000000" font-family="monospace" font-size="13" lengthAdjust="spacing" textLength="56" x="7" y="422.0827">DISABLE</text><!--MD5=[c359d52459e2121d057f9e751a78955a]
link degraded_auth to syncing--><path d="M517.8,844.2758 C522.23,806.6858 527.03,722.2158 491,665.5158 C481.07,649.8858 466.97,636.7258 451.68,625.8358 " fill="none" id="degraded_auth-to-syncing" style="stroke:#708090;stroke-width:2.0;"/><polygon fill="#708090" points="447.33,622.8258,452.4605,631.2329,451.4435,625.6682,457.0082,624.6512,447.33,622.8258" style="stroke:#708090;stroke-width:2.0;"/><text fill="#000000" font-family="monospace" font-size="13" lengthAdjust="spacing" textLength="40" x="519" y="729.5827">RETRY</text><text fill="#000000" font-family="monospace" font-size="13" lengthAdjust="spacing" textLength="160" x="519" y="744.7156">└ G:hasPendingRemote</text><!--MD5=[4001a0cec5f6e400b92cfe1d2ee96da6]
link degraded_auth to disabled--><path d="M572.41,857.7058 C686.53,844.5758 931,807.7658 931,733.5158 C931,167.5158 931,167.5158 931,167.5158 C931,106.2558 728.1,70.6958 638.11,57.9358 " fill="none" id="degraded_auth-to-disabled" style="stroke:#708090;stroke-width:2.0;"/><polygon fill="#708090" points="633.13,57.2358,641.4823,62.455,638.0809,57.935,642.6009,54.5335,633.13,57.2358" style="stroke:#708090;stroke-width:2.0;"/><text fill="#000000" font-family="monospace" font-size="13" lengthAdjust="spacing" textLength="56" x="932" y="422.0827">DISABLE</text><!--MD5=[90a8c304d8e092823f7654830f87df08]
link conflict to pending_remote--><path d="M769.65,844.3858 C768.17,767.1258 761.84,481.5758 749,467.5158 C713.31,428.4458 563.71,419.9958 475.28,418.4958 " fill="none" id="conflict-to-pending_remote" style="stroke:#708090;stroke-width:2.0;"/><polygon fill="#708090" points="470.07,418.4058,479.0119,422.534,475.0695,418.4773,479.1262,414.5348,470.07,418.4058" style="stroke:#708090;stroke-width:2.0;"/><text fill="#000000" font-family="monospace" font-size="13" lengthAdjust="spacing" textLength="136" x="766" y="678.5827">CONFLICT_RESOLVED</text><!--MD5=[6fcd7afc687f437536ec9008a4f77d05]
link conflict to disabled--><path d="M807.19,863.3158 C885.24,860.7358 1059,842.7258 1059,733.5158 C1059,167.5158 1059,167.5158 1059,167.5158 C1059,81.2958 752.77,59.2558 638.41,54.0258 " fill="none" id="conflict-to-disabled" style="stroke:#708090;stroke-width:2.0;"/><polygon fill="#708090" points="633.11,53.7958,641.9179,58.2027,638.1048,54.0242,642.2833,50.211,633.11,53.7958" style="stroke:#708090;stroke-width:2.0;"/><text fill="#000000" font-family="monospace" font-size="13" lengthAdjust="spacing" textLength="56" x="1060" y="422.0827">DISABLE</text><!--MD5=[3dd9e8ef68354ff9ed8ad575246813dd]
@startuml

title Sync

state disabled<<default>>
state misconfigured<<default>>
state healthy<<default>>
state pending_remote<<default>>
state syncing<<default>>
state route_after_sync<<default>>
state degraded_network<<default>>
state degraded_auth<<default>>
state conflict<<default>>

syncing: └┬ AEn:runSync\n ├┬ success\n │└ T:route_after_sync\n └┬ failure\n  └ T:route_after_sync

[*] - -> healthy
disabled -[#slategray]-> healthy: ENABLE\n└ G:isEnabled
disabled -[#slategray]-> misconfigured: CONFIG_BROKEN
misconfigured -[#slategray]-> disabled: DISABLE
misconfigured -[#slategray]-> healthy: ENABLE\n└ G:isEnabled
healthy -[#slategray]-> pending_remote: LOCAL_PERSISTED
healthy -[#slategray]-> disabled: DISABLE
healthy -[#slategray]-> misconfigured: CONFIG_BROKEN
pending_remote -[#slategray]-> syncing: SYNC_REQUESTED\n└ G:isEnabled
pending_remote -[#slategray]-> syncing: RETRY\n└ G:isEnabled
pending_remote -[#slategray]-> disabled: DISABLE
pending_remote -[#slategray]-> misconfigured: CONFIG_BROKEN
syncing -[#slategray]-> route_after_sync: route_after_sync
route_after_sync -[#slategray,dashed]-> healthy: healthy\n└ G:isHealthySyncOutcome
route_after_sync -[#slategray,dashed]-> degraded_network: degraded_network\n└ G:isNetworkOutcome
route_after_sync -[#slategray,dashed]-> degraded_auth: degraded_auth\n└ G:isAuthOutcome
route_after_sync -[#slategray,dashed]-> conflict: conflict\n└ G:isConflictOutcome
route_after_sync -[#slategray,dashed]-> misconfigured: misconfigured
degraded_network -[#slategray]-> syncing: RETRY\n└ G:hasPendingRemote
degraded_network -[#slategray]-> disabled: DISABLE
degraded_auth -[#slategray]-> syncing: RETRY\n└ G:hasPendingRemote
degraded_auth -[#slategray]-> disabled: DISABLE
conflict -[#slategray]-> pending_remote: CONFLICT_RESOLVED
conflict -[#slategray]-> disabled: DISABLE

hide empty description
skinparam backgroundColor white
skinparam shadowing false
skinparam note {
  BackgroundColor white
  BorderColor slategray
  FontName monospaced
}
skinparam ArrowFontName monospaced
skinparam state {
  FontName monospaced
  AttributeFontName monospaced
  BackgroundColor white
  BorderColor slategray
  ArrowColor slategray
  ArrowThickness 2
  MessageAlignment left
  BackgroundColor<<danger>> Implementation
  BorderColor<<danger>> indianred
  BackgroundColor<<info>> Application
  BorderColor<<info>> skyblue
  BackgroundColor<<warning>> Strategy
  BorderColor<<warning>> tan
  BackgroundColor<<success>> Technology
  BorderColor<<success>> mediumseagreen
  BackgroundColor<<primary>> Motivation
  BorderColor<<primary>> lightsteelblue
}
@enduml

PlantUML version 1.2021.12(Tue Oct 05 11:01:58 CDT 2021)
(GPL source distribution)
Java Runtime: OpenJDK Runtime Environment
JVM: OpenJDK 64-Bit Server VM
Default Encoding: UTF-8
Language: es
Country: ES
--></g></svg>